<?xml version="1.0" encoding="UTF-8"?> <svg xmlns="http://www.w3.org/2000/svg" id="Flat" height="512" viewBox="0 0 512 512" width="512"><path d="m122.676 74.676h192v336h-192z" fill="#e2d2c2" transform="matrix(.707 -.707 .707 .707 -107.549 225.705)"></path><path d="m242.017 198.135c5.894 5.894 15.306 15.306 4.943 72.825-57.519 10.363-66.931.951-72.826-4.943s-12.026-23.341-.713-34.655 26.379-7.562 26.379-7.562-3.755-15.069 7.558-26.383 28.764-5.177 34.659.718z" fill="#ce3536"></path><path d="m121.806 168.434c3.537 3.536 9.184 9.183 6.361 40.3-31.118 2.824-36.765-2.824-40.3-6.36s-7.782-13.439-2.125-19.1 14.133-2.838 14.133-2.838-2.819-8.476 2.838-14.132 15.556-1.404 19.093 2.13z" fill="#ce3536"></path><path d="m224 24h192v336h-192z" fill="#fae8d8"></path><path d="m352 184-32 48-32-48 32-48z" fill="#684436"></path><path d="m288 84-16 28-16-28 16-28z" fill="#684436"></path><path d="m480 296v192h-56a80 80 0 0 1 -80-80h.16l-51.9-76.805a32 32 0 0 1 8.6-44.43 32 32 0 0 1 44.43 8.6l46.71 64.635h24v-176l60.235 96.941a32 32 0 0 1 3.765 15.059z" fill="#f5cbaa"></path></svg> 